<svg xmlns="http://www.w3.org/2000/svg" xmlns:xlink="http://www.w3.org/1999/xlink" width="500" zoomAndPan="magnify" viewBox="0 0 375 374.999991" height="500" preserveAspectRatio="xMidYMid meet" version="1.0"><defs><g/></defs><g fill="#5e17eb" fill-opacity="1"><g transform="translate(20.801584, 272.154887)"><g><path d="M 6.328125 -66.90625 L 6.328125 -98.0625 L 127.96875 -157.625 L 127.96875 -111.25 L 65.125 -82.359375 L 127.96875 -53.46875 L 127.96875 -7.09375 Z M 6.328125 -66.90625 "/></g></g></g><g fill="#5e17eb" fill-opacity="1"><g transform="translate(155.104653, 272.154887)"><g><path d="M 32.6875 -49.15625 C 25.425781 -49.15625 19.21875 -51.734375 14.0625 -56.890625 C 8.90625 -62.046875 6.328125 -68.253906 6.328125 -75.515625 C 6.328125 -82.773438 8.863281 -88.9375 13.9375 -94 C 19.007812 -99.070312 25.257812 -101.609375 32.6875 -101.609375 C 40.125 -101.609375 46.332031 -99.117188 51.3125 -94.140625 C 56.300781 -89.160156 58.796875 -82.953125 58.796875 -75.515625 C 58.796875 -68.078125 56.257812 -61.820312 51.1875 -56.75 C 46.113281 -51.6875 39.945312 -49.15625 32.6875 -49.15625 Z M 32.6875 -49.15625 "/></g></g></g><g fill="#5e17eb" fill-opacity="1"><g transform="translate(220.22897, 272.154887)"><g><path d="M 6.328125 -53.46875 L 69.1875 -82.359375 L 6.328125 -111.25 L 6.328125 -157.625 L 127.96875 -98.0625 L 127.96875 -66.90625 L 6.328125 -7.09375 Z M 6.328125 -53.46875 "/></g></g></g></svg>